<svg id="Layer_1" data-name="Layer 1" xmlns="http://www.w3.org/2000/svg" xmlns:xlink="http://www.w3.org/1999/xlink" viewBox="0 0 219.84775 76.86985">
  <defs>
    <style>
      .cls-1 {
        fill: #fff;
      }

      .cls-2 {
        fill: url(#linear-gradient);
      }

      .cls-3 {
        fill: #ea3970;
      }
    </style>
    <linearGradient id="linear-gradient" x1="723.18052" y1="34.87444" x2="680.41317" y2="77.64178" gradientTransform="matrix(-1, 0, 0, 1, 758.05481, 0)" gradientUnits="userSpaceOnUse">
      <stop offset="0.22381" stop-color="#ea3970" stop-opacity="0.64"/>
      <stop offset="1" stop-color="#ea3970" stop-opacity="0.32"/>
    </linearGradient>
  </defs>
  <g>
    <path class="cls-1" d="M83.08994,32.07925a24.81745,24.81745,0,0,1-4.61589-1.14441,10.4136,10.4136,0,0,1-3.01457-1.6361,7.87676,7.87676,0,0,1-1.74268-1.93928,6.00616,6.00616,0,0,1-.80087-1.962,9.33511,9.33511,0,0,1-.18832-1.79959v-.32676H85.77484a3.51866,3.51866,0,0,0,.14114.90083,2.2056,2.2056,0,0,0,.68312,1.0194,4.45339,4.45339,0,0,0,1.57775.853,8.99731,8.99731,0,0,0,2.82624.35532h.09416a15.76187,15.76187,0,0,0,2.73187-.18914,5.74312,5.74312,0,0,0,1.578-.47391,1.60774,1.60774,0,0,0,.7301-.66387,1.79677,1.79677,0,0,0,.18832-.80585v-.095a1.96186,1.96186,0,0,0-.16472-.82944,1.51689,1.51689,0,0,0-.68313-.63946,4.539,4.539,0,0,0-1.48358-.42692,22.70437,22.70437,0,0,0-2.52-.18977l-5.36959-.14217a27.76934,27.76934,0,0,1-6.5471-.875,12.18182,12.18182,0,0,1-4.00376-1.84429,5.87419,5.87419,0,0,1-2.00177-2.48251,7.53168,7.53168,0,0,1-.54157-2.79065V13.6676a7.20347,7.20347,0,0,1,.63573-2.97917,5.96586,5.96586,0,0,1,2.4258-2.53032A15.30062,15.30062,0,0,1,81.13515,6.408a45.96438,45.96438,0,0,1,8.5019-.63883h2.49637a43.13856,43.13856,0,0,1,8.337.661A16.25743,16.25743,0,0,1,105.5575,8.1993a6.25064,6.25064,0,0,1,2.52,2.52513,6.66227,6.66227,0,0,1,.68292,2.92537v.33049H95.94865a3.93172,3.93172,0,0,0-.18832-.73444,1.6263,1.6263,0,0,0-.65953-.75887A4.95185,4.95185,0,0,0,93.57,11.87111a11.26389,11.26389,0,0,0-2.70829-.26137h-.04718a21.5493,21.5493,0,0,0-2.52.11858,6.4185,6.4185,0,0,0-1.50718.33194,1.37874,1.37874,0,0,0-.7301.5453,1.50481,1.50481,0,0,0-.18832.758v.0478a1.41232,1.41232,0,0,0,.18832.71106,1.47641,1.47641,0,0,0,.70651.56889,6.21516,6.21516,0,0,0,1.43661.40334,16.88991,16.88991,0,0,0,2.37862.21253l5.32261.14134a41.75438,41.75438,0,0,1,6.97093.70506,12.299,12.299,0,0,1,4.21566,1.57651,5.12012,5.12012,0,0,1,2.07255,2.44546,9.37377,9.37377,0,0,1,.54158,3.31629v.329a8.77464,8.77464,0,0,1-.63594,3.31628,6.08284,6.08284,0,0,1-2.51976,2.77534,16.07127,16.07127,0,0,1-5.32261,1.90533,46.42618,46.42618,0,0,1-8.9965.70506H89.63705A41.53539,41.53539,0,0,1,83.08994,32.07925Z"/>
    <path class="cls-1" d="M173.44432,32.52293a37.26385,37.26385,0,0,1-7.06509-.58875,21.495,21.495,0,0,1-5.13409-1.60155,13.08389,13.08389,0,0,1-3.48556-2.33143,11.17516,11.17516,0,0,1-2.14312-2.77906,10.909,10.909,0,0,1-1.08335-2.96738,14.39639,14.39639,0,0,1-.30607-2.87322v-.75369a15.01642,15.01642,0,0,1,.28247-2.80244,10.10344,10.10344,0,0,1,1.05977-2.9204,11.01519,11.01519,0,0,1,2.14311-2.73188A12.62775,12.62775,0,0,1,161.198,7.91226a23.22329,23.22329,0,0,1,5.13409-1.55436,37.28257,37.28257,0,0,1,7.06529-.58875h3.57973a38.94734,38.94734,0,0,1,7.25361.58875,22.30593,22.30593,0,0,1,5.18127,1.578,12.567,12.567,0,0,1,3.43838,2.26086,10.22669,10.22669,0,0,1,2.049,2.70829,9.87291,9.87291,0,0,1,.9656,2.89681,17.523,17.523,0,0,1,.23551,2.77906v.84785a18.22247,18.22247,0,0,1-.23551,2.84962,10.4,10.4,0,0,1-2.944,5.72285,11.87515,11.87515,0,0,1-3.43838,2.33143,21.90258,21.90258,0,0,1-5.22825,1.60155,39.61569,39.61569,0,0,1-7.32439.58875Zm1.74288-19.68849a11.94993,11.94993,0,0,0-3.90938.54613,6.7149,6.7149,0,0,0-2.4494,1.39977,4.67186,4.67186,0,0,0-1.24808,1.92231,6.69858,6.69858,0,0,0-.35326,2.11145v.19a7.13972,7.13972,0,0,0,.35326,2.16008,5.16237,5.16237,0,0,0,1.24808,2.04068,6.65883,6.65883,0,0,0,2.4258,1.51836,11.01527,11.01527,0,0,0,3.933.5931h.047a10.48757,10.48757,0,0,0,3.886-.6167A6.93029,6.93029,0,0,0,181.546,23.157a5.1727,5.1727,0,0,0,1.24808-2.04089,6.99976,6.99976,0,0,0,.35326-2.11207v-.19a6.69886,6.69886,0,0,0-.35326-2.11145,4.6802,4.6802,0,0,0-1.24808-1.92231,6.74576,6.74576,0,0,0-2.42581-1.39977,11.739,11.739,0,0,0-3.886-.54613Z"/>
    <path class="cls-1" d="M132.17015,71.17065a37.26393,37.26393,0,0,1-7.06509-.58875,21.49481,21.49481,0,0,1-5.13408-1.60155,13.08357,13.08357,0,0,1-3.48557-2.33144,11.17494,11.17494,0,0,1-2.14312-2.779,10.909,10.909,0,0,1-1.08335-2.96738,14.39639,14.39639,0,0,1-.30607-2.87322v-.75369a15.01639,15.01639,0,0,1,.28248-2.80244,10.10312,10.10312,0,0,1,1.05976-2.9204,11.01506,11.01506,0,0,1,2.14312-2.73188A12.62731,12.62731,0,0,1,119.92379,46.56a23.22329,23.22329,0,0,1,5.13409-1.55436,37.2825,37.2825,0,0,1,7.06529-.58876h3.57973a38.94727,38.94727,0,0,1,7.25361.58876,22.30643,22.30643,0,0,1,5.18127,1.578,12.56727,12.56727,0,0,1,3.43838,2.26087,10.22653,10.22653,0,0,1,2.049,2.70829,9.873,9.873,0,0,1,.9656,2.8968,17.52324,17.52324,0,0,1,.23551,2.77906v.84785a18.22249,18.22249,0,0,1-.23551,2.84963,10.3999,10.3999,0,0,1-2.944,5.72284,11.875,11.875,0,0,1-3.43838,2.33144,21.90258,21.90258,0,0,1-5.22825,1.60155,39.61569,39.61569,0,0,1-7.32439.58875ZM133.913,51.48216a11.95023,11.95023,0,0,0-3.90938.54612,6.715,6.715,0,0,0-2.4494,1.39978,4.67183,4.67183,0,0,0-1.24808,1.9223,6.69892,6.69892,0,0,0-.35326,2.11146v.19a7.14,7.14,0,0,0,.35326,2.16009,5.16237,5.16237,0,0,0,1.24808,2.04068,6.65881,6.65881,0,0,0,2.4258,1.51835,11.015,11.015,0,0,0,3.933.59311h.047a10.48766,10.48766,0,0,0,3.886-.6167,6.93024,6.93024,0,0,0,2.4258-1.54256,5.17277,5.17277,0,0,0,1.24808-2.04089,6.99982,6.99982,0,0,0,.35326-2.11208v-.19a6.69892,6.69892,0,0,0-.35326-2.11146,4.68017,4.68017,0,0,0-1.24808-1.9223,6.74587,6.74587,0,0,0-2.4258-1.39978,11.73942,11.73942,0,0,0-3.886-.54612Z"/>
    <path class="cls-1" d="M151.73066,13.77641a9.73844,9.73844,0,0,0-2.44918-3.95648,12.34029,12.34029,0,0,0-4.61612-2.77888,21.65267,21.65267,0,0,0-7.25359-1.03648h-.98922a22.01219,22.01219,0,0,0-4.92194.49468,19.60107,19.60107,0,0,0-3.65052,1.17748,15.4633,15.4633,0,0,0-2.44919,1.3425q-.94269.66015-1.31884.98922V6.47562H111.27033V48.807a10.79947,10.79947,0,0,1,.63574-1.40256,11.015,11.015,0,0,1,2.1431-2.732,12.62882,12.62882,0,0,1,3.48557-2.26083,23.23288,23.23288,0,0,1,5.13406-1.55439c.4527-.08826.92547-.16528,1.41326-.23383V28.70764a14.81819,14.81819,0,0,0,1.24805.89509,12.84222,12.84222,0,0,0,2.42585,1.20085,23.36272,23.36272,0,0,0,3.60329,1.03648,23.05143,23.05143,0,0,0,4.78084.44741h.89483a20.739,20.739,0,0,0,7.37155-1.13035,13.00444,13.00444,0,0,0,4.73368-2.96765,10.61057,10.61057,0,0,0,2.54355-4.14488,14.95143,14.95143,0,0,0,.75347-4.663v-.98921A15.09266,15.09266,0,0,0,151.73066,13.77641Zm-12.29352,5.44037a6.98843,6.98843,0,0,1-.32968,2.08785,4.90323,4.90323,0,0,1-1.15392,1.92386,6.19656,6.19656,0,0,1-2.23749,1.43076,9.60737,9.60737,0,0,1-3.53254.56282H131.948a10.41986,10.41986,0,0,1-3.55614-.53945,7.38772,7.38772,0,0,1-2.44941-1.407,5.383,5.383,0,0,1-1.413-1.94736,5.48138,5.48138,0,0,1-.44741-2.11148V19.029a5.52546,5.52546,0,0,1,.44741-2.18132,5.34357,5.34357,0,0,1,1.38944-1.90036,7.06355,7.06355,0,0,1,2.42579-1.36065A11.01763,11.01763,0,0,1,131.948,13.07h.23548a10.38113,10.38113,0,0,1,3.53254.51674,5.901,5.901,0,0,1,2.23749,1.36065,4.69326,4.69326,0,0,1,1.15392,1.92308,7.37008,7.37008,0,0,1,.32968,2.1586Z"/>
    <path class="cls-1" d="M195.08083,70.46414H182.36326V65.94241q-.47122.47121-1.43661,1.31885A13.72374,13.72374,0,0,1,178.3833,68.957a18.497,18.497,0,0,1-3.76825,1.46,19.089,19.089,0,0,1-5.1105.61235h-.32966a15.42229,15.42229,0,0,1-5.86419-.9656,10.76872,10.76872,0,0,1-3.74466-2.44919,8.48023,8.48023,0,0,1-1.97818-3.20288,10.48193,10.48193,0,0,1-.56517-3.27366V45.12337H169.8814V57.22859a8.18427,8.18427,0,0,0,.30607,2.28446,4.64381,4.64381,0,0,0,2.82624,3.10872,7.22763,7.22763,0,0,0,2.70828.44742,6.42652,6.42652,0,0,0,4.89859-1.78987,6.13069,6.13069,0,0,0,1.6957-4.38039V45.12337h12.76455Z"/>
    <path class="cls-1" d="M209.01441,32.52293a6.63453,6.63453,0,0,1-5.01634-1.78986q-1.72-1.78955-1.71929-5.41677V14.954h-4.8514V6.47566h4.8514V0h12.71757V6.47566h4.8514V14.954h-4.8514v7.41627a2.88571,2.88571,0,0,0,.37684,1.67956q.37623.51342,1.74268.513h2.73188v7.96012Z"/>
    <path class="cls-1" d="M209.01441,71.16889a6.63457,6.63457,0,0,1-5.01634-1.78986q-1.72-1.78956-1.71929-5.41677V53.59992h-4.8514V45.12161h4.8514V38.646h12.71757v6.47565h4.8514v8.47831h-4.8514v7.41627a2.88566,2.88566,0,0,0,.37684,1.67956q.37623.51344,1.74268.513h2.73188v7.96012Z"/>
    <g>
      <polygon class="cls-2" points="53.724 14.818 76.87 76.87 14.817 53.724 53.724 14.818"/>
      <circle class="cls-3" cx="28.63569" cy="28.63569" r="28.63569"/>
    </g>
  </g>
</svg>
