<?xml version="1.0" encoding="UTF-8"?>
<svg data-name="Layer 1" viewBox="0 0 219.85 76.87" xmlns="http://www.w3.org/2000/svg">
<defs>
<style>.cls-1 {
        fill: #fff;
      }

      .cls-2 {
        fill: url(#a);
      }

      .cls-3 {
        fill: #ea3970;
      }</style>
<linearGradient id="a" x1="723.18" x2="680.41" y1="34.874" y2="77.642" gradientTransform="matrix(-1 0 0 1 758.05 0)" gradientUnits="userSpaceOnUse">
<stop stop-color="#ea3970" stop-opacity=".64" offset=".22381"/>
<stop stop-color="#ea3970" stop-opacity=".32" offset="1"/>
</linearGradient>
</defs>
<path class="cls-1" d="m83.09 32.079a24.817 24.817 0 0 1-4.6159-1.1444 10.414 10.414 0 0 1-3.0146-1.6361 7.8768 7.8768 0 0 1-1.7427-1.9393 6.0062 6.0062 0 0 1-0.80087-1.962 9.3351 9.3351 0 0 1-0.18832-1.7996v-0.32676h13.047a3.5187 3.5187 0 0 0 0.14114 0.90083 2.2056 2.2056 0 0 0 0.68312 1.0194 4.4534 4.4534 0 0 0 1.5778 0.853 8.9973 8.9973 0 0 0 2.8262 0.35532h0.09416a15.762 15.762 0 0 0 2.7319-0.18914 5.7431 5.7431 0 0 0 1.578-0.47391 1.6077 1.6077 0 0 0 0.7301-0.66387 1.7968 1.7968 0 0 0 0.18832-0.80585v-0.095a1.9619 1.9619 0 0 0-0.16472-0.82944 1.5169 1.5169 0 0 0-0.68313-0.63946 4.539 4.539 0 0 0-1.4836-0.42692 22.704 22.704 0 0 0-2.52-0.18977l-5.3696-0.14217a27.769 27.769 0 0 1-6.5471-0.875 12.182 12.182 0 0 1-4.0038-1.8443 5.8742 5.8742 0 0 1-2.0018-2.4825 7.5317 7.5317 0 0 1-0.54157-2.7906v-0.28408a7.2035 7.2035 0 0 1 0.63573-2.9792 5.9659 5.9659 0 0 1 2.4258-2.5303 15.301 15.301 0 0 1 5.0633-1.7501 45.964 45.964 0 0 1 8.5019-0.63883h2.4964a43.139 43.139 0 0 1 8.337 0.661 16.257 16.257 0 0 1 5.0871 1.7691 6.2506 6.2506 0 0 1 2.52 2.5251 6.6623 6.6623 0 0 1 0.68292 2.9254v0.33049h-12.812a3.9317 3.9317 0 0 0-0.18832-0.73444 1.6263 1.6263 0 0 0-0.65953-0.75887 4.9518 4.9518 0 0 0-1.5308-0.61587 11.264 11.264 0 0 0-2.7083-0.26137h-0.04718a21.549 21.549 0 0 0-2.52 0.11858 6.4185 6.4185 0 0 0-1.5072 0.33194 1.3787 1.3787 0 0 0-0.7301 0.5453 1.5048 1.5048 0 0 0-0.18832 0.758v0.0478a1.4123 1.4123 0 0 0 0.18832 0.71106 1.4764 1.4764 0 0 0 0.70651 0.56889 6.2152 6.2152 0 0 0 1.4366 0.40334 16.89 16.89 0 0 0 2.3786 0.21253l5.3226 0.14134a41.754 41.754 0 0 1 6.9709 0.70506 12.299 12.299 0 0 1 4.2157 1.5765 5.1201 5.1201 0 0 1 2.0726 2.4455 9.3738 9.3738 0 0 1 0.54158 3.3163v0.329a8.7746 8.7746 0 0 1-0.63594 3.3163 6.0828 6.0828 0 0 1-2.5198 2.7753 16.071 16.071 0 0 1-5.3226 1.9053 46.426 46.426 0 0 1-8.9965 0.70506h-2.5905a41.535 41.535 0 0 1-6.5471-0.4436z"/>
<path class="cls-1" d="m173.44 32.523a37.264 37.264 0 0 1-7.0651-0.58875 21.495 21.495 0 0 1-5.1341-1.6016 13.084 13.084 0 0 1-3.4856-2.3314 11.175 11.175 0 0 1-2.1431-2.7791 10.909 10.909 0 0 1-1.0834-2.9674 14.396 14.396 0 0 1-0.30607-2.8732v-0.75369a15.016 15.016 0 0 1 0.28247-2.8024 10.103 10.103 0 0 1 1.0598-2.9204 11.015 11.015 0 0 1 2.1431-2.7319 12.628 12.628 0 0 1 3.4856-2.2609 23.223 23.223 0 0 1 5.1341-1.5544 37.283 37.283 0 0 1 7.0653-0.58875h3.5797a38.947 38.947 0 0 1 7.2536 0.58875 22.306 22.306 0 0 1 5.1813 1.578 12.567 12.567 0 0 1 3.4384 2.2609 10.227 10.227 0 0 1 2.049 2.7083 9.8729 9.8729 0 0 1 0.9656 2.8968 17.523 17.523 0 0 1 0.23551 2.7791v0.84785a18.222 18.222 0 0 1-0.23551 2.8496 10.4 10.4 0 0 1-2.944 5.7228 11.875 11.875 0 0 1-3.4384 2.3314 21.903 21.903 0 0 1-5.2282 1.6016 39.616 39.616 0 0 1-7.3244 0.58875zm1.7429-19.688a11.95 11.95 0 0 0-3.9094 0.54613 6.7149 6.7149 0 0 0-2.4494 1.3998 4.6719 4.6719 0 0 0-1.2481 1.9223 6.6986 6.6986 0 0 0-0.35326 2.1114v0.19a7.1397 7.1397 0 0 0 0.35326 2.1601 5.1624 5.1624 0 0 0 1.2481 2.0407 6.6588 6.6588 0 0 0 2.4258 1.5184 11.015 11.015 0 0 0 3.933 0.5931h0.047a10.488 10.488 0 0 0 3.886-0.6167 6.9303 6.9303 0 0 0 2.4258-1.5426 5.1727 5.1727 0 0 0 1.2481-2.0409 6.9998 6.9998 0 0 0 0.35326-2.1121v-0.19a6.6989 6.6989 0 0 0-0.35326-2.1114 4.6802 4.6802 0 0 0-1.2481-1.9223 6.7458 6.7458 0 0 0-2.4258-1.3998 11.739 11.739 0 0 0-3.886-0.54613z"/>
<path class="cls-1" d="m132.17 71.171a37.264 37.264 0 0 1-7.0651-0.58875 21.495 21.495 0 0 1-5.1341-1.6016 13.084 13.084 0 0 1-3.4856-2.3314 11.175 11.175 0 0 1-2.1431-2.779 10.909 10.909 0 0 1-1.0834-2.9674 14.396 14.396 0 0 1-0.30607-2.8732v-0.75369a15.016 15.016 0 0 1 0.28248-2.8024 10.103 10.103 0 0 1 1.0598-2.9204 11.015 11.015 0 0 1 2.1431-2.7319 12.627 12.627 0 0 1 3.4856-2.2609 23.223 23.223 0 0 1 5.1341-1.5544 37.282 37.282 0 0 1 7.0653-0.58876h3.5797a38.947 38.947 0 0 1 7.2536 0.58876 22.306 22.306 0 0 1 5.1813 1.578 12.567 12.567 0 0 1 3.4384 2.2609 10.227 10.227 0 0 1 2.049 2.7083 9.873 9.873 0 0 1 0.9656 2.8968 17.523 17.523 0 0 1 0.23551 2.7791v0.84785a18.222 18.222 0 0 1-0.23551 2.8496 10.4 10.4 0 0 1-2.944 5.7228 11.875 11.875 0 0 1-3.4384 2.3314 21.903 21.903 0 0 1-5.2282 1.6016 39.616 39.616 0 0 1-7.3244 0.58875zm1.7428-19.688a11.95 11.95 0 0 0-3.9094 0.54612 6.715 6.715 0 0 0-2.4494 1.3998 4.6718 4.6718 0 0 0-1.2481 1.9223 6.6989 6.6989 0 0 0-0.35326 2.1115v0.19a7.14 7.14 0 0 0 0.35326 2.1601 5.1624 5.1624 0 0 0 1.2481 2.0407 6.6588 6.6588 0 0 0 2.4258 1.5184 11.015 11.015 0 0 0 3.933 0.59311h0.047a10.488 10.488 0 0 0 3.886-0.6167 6.9302 6.9302 0 0 0 2.4258-1.5426 5.1728 5.1728 0 0 0 1.2481-2.0409 6.9998 6.9998 0 0 0 0.35326-2.1121v-0.19a6.6989 6.6989 0 0 0-0.35326-2.1115 4.6802 4.6802 0 0 0-1.2481-1.9223 6.7459 6.7459 0 0 0-2.4258-1.3998 11.739 11.739 0 0 0-3.886-0.54612z"/>
<path class="cls-1" d="m151.73 13.776a9.7384 9.7384 0 0 0-2.4492-3.9565 12.34 12.34 0 0 0-4.6161-2.7789 21.653 21.653 0 0 0-7.2536-1.0365h-0.98922a22.012 22.012 0 0 0-4.9219 0.49468 19.601 19.601 0 0 0-3.6505 1.1775 15.463 15.463 0 0 0-2.4492 1.3425q-0.94269 0.66015-1.3188 0.98922v-3.5328h-12.812v42.331a10.799 10.799 0 0 1 0.63574-1.4026 11.015 11.015 0 0 1 2.1431-2.732 12.629 12.629 0 0 1 3.4856-2.2608 23.233 23.233 0 0 1 5.1341-1.5544c0.4527-0.08826 0.92547-0.16528 1.4133-0.23383v-11.916a14.818 14.818 0 0 0 1.248 0.89509 12.842 12.842 0 0 0 2.4258 1.2008 23.363 23.363 0 0 0 3.6033 1.0365 23.051 23.051 0 0 0 4.7808 0.44741h0.89483a20.739 20.739 0 0 0 7.3716-1.1304 13.004 13.004 0 0 0 4.7337-2.9676 10.611 10.611 0 0 0 2.5436-4.1449 14.951 14.951 0 0 0 0.75347-4.663v-0.98921a15.093 15.093 0 0 0-0.70651-4.616zm-12.294 5.4404a6.9884 6.9884 0 0 1-0.32968 2.0878 4.9032 4.9032 0 0 1-1.1539 1.9239 6.1966 6.1966 0 0 1-2.2375 1.4308 9.6074 9.6074 0 0 1-3.5325 0.56282h-0.23551a10.42 10.42 0 0 1-3.5561-0.53945 7.3877 7.3877 0 0 1-2.4494-1.407 5.383 5.383 0 0 1-1.413-1.9474 5.4814 5.4814 0 0 1-0.44741-2.1115v-0.18778a5.5255 5.5255 0 0 1 0.44741-2.1813 5.3436 5.3436 0 0 1 1.3894-1.9004 7.0636 7.0636 0 0 1 2.4258-1.3606 11.018 11.018 0 0 1 3.6033-0.51667h0.23548a10.381 10.381 0 0 1 3.5325 0.51674 5.901 5.901 0 0 1 2.2375 1.3606 4.6933 4.6933 0 0 1 1.1539 1.9231 7.3701 7.3701 0 0 1 0.32968 2.1586z"/>
<path class="cls-1" d="m195.08 70.464h-12.718v-4.5217q-0.47122 0.47121-1.4366 1.3188a13.724 13.724 0 0 1-2.5434 1.6957 18.497 18.497 0 0 1-3.7682 1.46 19.089 19.089 0 0 1-5.1105 0.61235h-0.32966a15.422 15.422 0 0 1-5.8642-0.9656 10.769 10.769 0 0 1-3.7447-2.4492 8.4802 8.4802 0 0 1-1.9782-3.2029 10.482 10.482 0 0 1-0.56517-3.2737v-16.015h12.859v12.105a8.1843 8.1843 0 0 0 0.30607 2.2845 4.6438 4.6438 0 0 0 2.8262 3.1087 7.2276 7.2276 0 0 0 2.7083 0.44742 6.4265 6.4265 0 0 0 4.8986-1.7899 6.1307 6.1307 0 0 0 1.6957-4.3804v-11.776h12.765z"/>
<path class="cls-1" d="m209.01 32.523a6.6345 6.6345 0 0 1-5.0163-1.7899q-1.72-1.7896-1.7193-5.4168v-10.362h-4.8514v-8.4783h4.8514v-6.4757h12.718v6.4757h4.8514v8.4783h-4.8514v7.4163a2.8857 2.8857 0 0 0 0.37684 1.6796q0.37623 0.51342 1.7427 0.513h2.7319v7.9601z"/>
<path class="cls-1" d="m209.01 71.169a6.6346 6.6346 0 0 1-5.0163-1.7899q-1.72-1.7896-1.7193-5.4168v-10.362h-4.8514v-8.4783h4.8514v-6.4756h12.718v6.4756h4.8514v8.4783h-4.8514v7.4163a2.8857 2.8857 0 0 0 0.37684 1.6796q0.37623 0.51344 1.7427 0.513h2.7319v7.9601z"/>
<polygon class="cls-2" points="53.724 14.818 76.87 76.87 14.817 53.724"/>
<circle class="cls-3" cx="28.636" cy="28.636" r="28.636"/>
</svg>
